<svg width="523" height="522" viewBox="0 0 523 522" fill="none" xmlns="http://www.w3.org/2000/svg">
<path d="M294.919 44.0097C300.455 34.9613 307.015 25.3003 317.289 22.3457C329.186 18.9241 341.408 25.7212 351.775 32.4285C382.778 52.4879 412.635 74.2265 441.208 97.5449L441.177 97.8961C418.931 96.3801 396.686 94.8641 374.441 93.3481C358.368 92.2528 341.744 91.0064 327.54 83.4928C322.151 80.6417 316.897 76.8332 310.789 76.5678C303.201 76.2381 296.585 81.4751 291.386 86.9465C260.629 119.312 251.729 168.806 217.224 197.241C238.982 144.214 264.962 92.9765 294.919 44.0097Z" fill="white"/>
<path d="M105.864 318.525C109.265 314.281 110.655 313.287 114.01 309.004C141.327 274.09 167.003 237.996 191.038 200.723C207.363 175.409 222.879 149.609 237.585 123.322C244.586 110.825 251.396 98.2304 258.013 85.5373C263.148 75.6954 268.168 65.7947 273.074 55.8351C274.477 52.9904 275.841 50.1327 277.197 47.2684C280.393 40.5327 283.53 33.7644 286.898 27.1203C290.736 19.5476 295.408 11.6087 302.456 6.521C305.663 4.11059 309.499 2.65214 313.514 2.31613C319.251 1.94992 324.545 4.29106 329.522 6.84797C365.931 25.6097 400.017 49.1321 430.848 75.8981C461.758 102.724 489.386 133.031 513.17 166.202C513.897 167.228 515.618 166.247 514.883 165.214C511.991 161.173 509.042 157.175 506.036 153.221C481.085 120.406 452.311 90.6101 420.307 64.4475C404.462 51.4919 387.87 39.4544 370.616 28.3955C361.834 22.7716 352.888 17.4114 343.776 12.3149C339.183 9.74494 334.571 7.20763 329.879 4.8273C325.28 2.49271 320.396 0.393527 315.142 0.315053C297.261 0.0404107 288.003 20.0511 281.644 33.5159C279.646 37.7535 277.623 41.978 275.576 46.1894C267.84 62.1783 259.807 78.0212 251.475 93.7182C246.333 103.41 241.079 113.044 235.712 122.623C219.01 152.449 201.257 181.672 182.455 210.291C157.546 248.2 132.837 281.688 104.461 317.139C103.68 318.12 105.076 319.519 105.864 318.525Z" fill="white"/>
<path d="M204.826 159.399L178.186 149.77L164.96 144.989C160.652 143.432 156.355 141.66 151.901 140.545C147.964 139.559 143.964 139.398 140.082 140.694C136.657 141.946 133.522 143.867 130.863 146.341C128.147 148.813 125.62 151.48 123.302 154.321C120.422 157.741 117.585 161.197 114.735 164.641C102.973 178.856 91.2879 193.132 79.6797 207.471C68.0717 221.809 56.5413 236.208 45.0886 250.668C33.6078 265.164 22.206 279.72 10.8831 294.336C9.49606 296.127 8.11017 297.918 6.72548 299.711C5.96046 300.701 4.23545 299.725 5.01131 298.72C16.4177 283.957 27.9036 269.254 39.469 254.611C51.0628 239.933 62.7368 225.318 74.4908 210.765C86.2447 196.212 98.0779 181.722 109.991 167.295C112.958 163.701 115.931 160.111 118.909 156.525C121.42 153.5 123.904 150.442 126.659 147.626C131.716 142.458 138.034 137.891 145.596 137.767C150.043 137.694 154.346 139.088 158.477 140.565C162.931 142.157 167.373 143.779 171.821 145.387L198.647 155.083L205.354 157.507C206.544 157.937 206.03 159.834 204.826 159.399V159.399Z" fill="white"/>
<path d="M131.867 159.495C134.489 156.341 137.324 153.038 141.246 151.756L144.908 151.899C117.032 200.577 79.3828 243.111 34.2717 276.892C66.8033 237.76 99.3349 198.627 131.867 159.495Z" fill="white"/>
<path d="M309.947 109.097C309.949 114.071 308.715 118.97 306.354 123.362C303.993 127.755 300.577 131.508 296.405 134.292C292.234 137.075 287.435 138.804 282.43 139.327C277.424 139.85 272.365 139.151 267.697 137.29C263.029 135.43 258.894 132.466 255.656 128.658C252.418 124.85 250.175 120.315 249.125 115.45C248.074 110.586 248.248 105.541 249.631 100.758C251.015 95.9756 253.565 91.6017 257.058 88.0204C257.107 87.9719 257.156 87.9233 257.205 87.8747C257.451 87.6193 257.697 87.3641 257.955 87.1209C257.957 87.121 257.959 87.1207 257.96 87.1201C257.962 87.1195 257.963 87.1186 257.964 87.1174C257.965 87.1163 257.966 87.1149 257.967 87.1134C257.967 87.112 257.968 87.1104 257.968 87.1088C258.288 86.8171 258.607 86.5254 258.939 86.2458C263.383 82.3962 268.855 79.8937 274.7 79.0379C280.545 78.1821 286.516 79.0092 291.898 81.4203C297.28 83.8314 301.845 87.7243 305.046 92.6328C308.247 97.5413 309.949 103.258 309.947 109.097V109.097Z" fill="#2F2E41"/>
<path d="M289.854 134.145C299.924 124.195 299.924 108.061 289.854 98.1099C279.785 88.159 263.458 88.159 253.389 98.1099C243.319 108.061 243.319 124.195 253.389 134.145C263.458 144.096 279.785 144.096 289.854 134.145Z" fill="#9E616A"/>
<path d="M290.045 91.6237C286.05 87.9298 281.082 85.4246 275.711 84.3959C270.34 83.3672 264.785 83.8568 259.683 85.8084C259.532 85.8668 259.381 85.9317 259.23 86.0031C259.223 86.0031 259.223 86.0096 259.216 86.0096C258.724 86.2108 258.225 86.4185 257.745 86.6457L257.45 86.7885V86.8274C257.397 86.8663 257.338 86.9118 257.279 86.9507C257.158 87.062 257.012 87.1422 256.852 87.1844C251.893 87.2493 247.854 88.9108 244.859 92.1235C240.86 96.407 238.981 103.332 239.559 111.627L239.572 111.88L239.796 112.023C241.911 113.327 243.914 114.476 245.845 115.482C246.987 116.086 248.097 116.637 249.201 117.143C249.332 117.202 249.463 117.267 249.595 117.325C260.76 122.42 270.973 123.342 280.785 120.116L280.969 120.058L285.139 113.152C285.569 115.511 286.717 117.685 288.431 119.382C290.144 121.078 292.341 122.218 294.728 122.647L296.462 122.952L299.004 123.394L299.109 122.92C301.631 111.692 297.986 99.12 290.045 91.6237Z" fill="#2F2E41"/>
<path d="M353.389 145.104C344.614 140.629 355.899 124.385 353.632 114.888C351.364 105.391 335.034 102.336 333.994 92.6324C332.953 82.9287 330.506 72.9203 324.026 65.5571C319.886 60.8519 313.785 57.3785 307.504 57.9678C305.378 58.1672 303.321 58.8169 301.473 59.8727C299.625 60.9285 298.028 62.3655 296.793 64.0859C295.557 65.8064 294.711 67.7697 294.312 69.8424C293.914 71.915 293.972 74.0481 294.483 76.0966C292.694 73.5923 288.066 74.1351 286.92 76.9836C285.902 79.5159 288.152 82.5832 290.8 82.8073C294.265 87.0358 298.232 91.5234 303.661 92.3764C305.409 92.6512 307.375 92.4499 308.652 91.238C309.929 90.026 310.028 87.6031 308.513 86.6974C315.335 89.3752 319.335 96.664 320.347 103.848C321.359 111.033 319.959 118.302 319.036 125.498C318.113 132.694 317.715 140.265 320.571 146.947C323.944 154.843 331.711 160.501 340.187 162.316C348.663 164.131 357.69 162.357 365.363 158.361C373.035 154.365 379.433 148.264 384.659 141.425C375.656 147.742 363.201 150.109 353.389 145.104Z" fill="#2F2E41"/>
<path d="M253.695 252.136L235.885 372.322L333.106 365.081L304.006 246.847L253.695 252.136Z" fill="#FFB8B8"/>
<path d="M355.4 503.444C355.314 503.859 355.204 504.268 355.072 504.671C343.852 508.68 332.378 511.956 320.723 514.478C318.267 506.495 313.558 491.379 309.433 479.015C306.064 468.923 303.089 460.667 302.051 459.635C299.168 456.799 302.051 453.015 302.051 453.015L289.737 415.183L284.141 397.997L282.223 434.102L279.438 486.401L279.36 487.868C279.36 487.868 275.524 499.219 277.442 501.114C279.36 503.009 275.524 510.584 275.524 510.584L274.421 520.52C273.015 520.592 271.616 520.644 270.204 520.682L269.725 520.832L269.331 520.708C267.433 520.767 265.528 520.804 263.617 520.819C262.809 520.825 262.001 520.832 261.187 520.832C260.806 520.832 260.425 520.832 260.044 520.825C254.534 520.806 249.065 520.628 243.638 520.293L240.269 493.196L236.788 465.197C236.788 465.197 240.617 457.636 236.788 453.852C234.482 451.574 235.638 448.264 236.932 445.992C236.131 442.481 235.034 437.081 233.556 429.085C233.504 428.819 233.458 428.547 233.405 428.274C232.939 425.736 232.521 423.248 232.151 420.81C231.494 416.52 230.982 412.399 230.588 408.453C229.251 395.672 229.067 382.798 230.036 369.985C230.404 365.429 230.864 362.093 231.166 360.165C231.192 359.983 231.475 358.964 231.934 357.355C232.657 354.778 233.845 350.689 235.179 346.114C235.888 343.686 236.637 341.123 237.379 338.572C238.673 334.152 239.96 329.771 240.998 326.228V326.208C241.911 323.099 242.64 320.646 243.021 319.361C243.204 318.731 243.303 318.387 243.303 318.387C243.303 318.387 243.507 318.342 243.894 318.257C245.096 317.985 248.064 317.329 252.176 316.453C256.465 315.558 261.988 314.422 268.057 313.266C273.252 312.28 278.847 311.274 284.41 310.372C286.407 310.054 288.403 309.742 290.374 309.45C302.544 307.659 313.715 306.64 319.009 307.802C319.375 307.879 319.737 307.976 320.092 308.094C320.452 308.211 320.797 308.366 321.124 308.555C321.288 308.652 322.877 314.779 324.907 322.762C324.926 322.84 324.946 322.924 324.966 323.002C325.576 325.416 326.227 327.986 326.89 330.615C327.566 333.295 328.25 336.028 328.919 338.689C330.909 346.594 332.748 353.909 333.694 357.491C334.055 358.88 334.292 359.704 334.344 359.795C336.564 363.449 338.377 372.406 339.848 383.64C341.162 393.668 342.206 405.513 343.014 417.02C343.414 422.712 343.756 428.326 344.045 433.596C345.023 451.327 345.417 465.171 345.417 465.171C345.417 465.171 346.882 476.711 349.792 482.156C350.15 482.859 350.607 483.508 351.151 484.084C353.089 485.998 353.312 487.66 353.056 488.841C352.944 489.399 352.711 489.926 352.373 490.386C352.296 490.498 352.21 490.605 352.117 490.704C351.866 491.878 351.91 493.095 352.244 494.249C352.579 495.403 353.193 496.458 354.034 497.324C355.893 499.174 355.742 501.822 355.4 503.444Z" fill="#2F2E41"/>
<path d="M323.554 213.589C323.442 212.771 323.324 211.947 323.199 211.116C323.127 210.584 323.041 210.052 322.963 209.526C322.128 204.217 325.603 199.674 321.104 196C320.052 195.154 319.195 194.097 318.588 192.898L317.557 190.847L315.659 187.044L311.508 178.775L310.793 177.354C310.59 176.95 310.357 176.562 310.096 176.192C309.32 175.079 308.31 174.144 307.134 173.453L296.823 167.378C295.23 166.444 293.947 165.07 293.132 163.426L292.876 162.906C291.74 160.602 289.704 155.092 287.293 152.697L287.287 152.691C286.762 152.097 286.049 151.697 285.264 151.555L274.999 150.549C273.357 150.384 271.7 150.644 270.191 151.303C268.681 151.961 267.371 152.997 266.388 154.307L266.106 155.572L264.457 162.991L264.366 163.01C263.88 163.121 263.394 163.231 262.914 163.367C252.268 166.242 247.828 203.023 247.828 203.023C247.828 203.023 240.374 215.179 243.303 222.701L248.531 234.832C248.571 234.923 248.602 235.019 248.623 235.117C249.096 236.438 249.262 237.846 249.109 239.239L249.115 239.712L249.129 240.757L249.168 243.438L249.293 252.329L249.45 263.46L249.588 272.942L249.634 275.467L241.024 312.494C240.883 313.711 240.986 314.943 241.328 316.12C241.669 317.297 242.242 318.396 243.014 319.354L243.021 319.361C243.21 319.6 243.411 319.83 243.625 320.049L243.631 320.055C243.835 320.263 244.045 320.451 244.262 320.64C245.299 321.536 246.521 322.197 247.844 322.577C249.167 322.958 250.558 323.047 251.92 322.84L253.069 322.665H253.076L269.758 320.192H269.771L271.702 319.906H271.715L290.387 317.135H290.4L293.598 316.655C293.854 316.622 294.104 316.59 294.36 316.57L311.456 315.408C311.848 315.382 312.239 315.332 312.625 315.259H312.632C314.135 314.965 315.544 314.318 316.741 313.373C317.938 312.427 318.887 311.211 319.508 309.827C319.766 309.272 319.962 308.691 320.092 308.094C320.241 307.448 320.322 306.789 320.335 306.127L320.526 290.213L321.176 238.784C321.189 237.068 321.685 235.39 322.608 233.936C324.979 230.198 324.71 222.189 323.554 213.589Z" fill="#64D2ED"/>
<path d="M294.89 350.945C294.65 349.633 294.703 348.285 295.047 346.996C295.39 345.707 296.016 344.509 296.879 343.484C297.742 342.46 298.822 341.635 300.043 341.068C301.264 340.501 302.595 340.205 303.944 340.202L314.61 309.562L325.009 322.9L313.287 349.951C313.142 352.191 312.172 354.3 310.559 355.88C308.946 357.46 306.803 358.4 304.535 358.523C302.267 358.645 300.033 357.941 298.255 356.545C296.478 355.148 295.28 353.156 294.89 350.945H294.89Z" fill="#9E616A"/>
<path d="M335.586 286.481L333.189 292.452L329.839 329.388C328.799 329.646 327.804 330.06 326.89 330.615C324.904 331.829 323.392 333.67 322.599 335.841C321.806 338.011 321.779 340.383 322.523 342.57L323.508 345.491L316.185 343.264L304.146 339.61L289.953 335.301L292.357 327.597C292.913 325.827 293.026 323.95 292.685 322.127C292.344 320.305 291.56 318.591 290.4 317.135C290.113 316.772 289.804 316.428 289.474 316.103L290.374 309.45L290.906 305.498L284.41 310.372L271.708 319.906H271.702L270.02 321.172C270.02 321.172 269.928 320.834 269.758 320.192C269.436 318.952 268.832 316.576 268.057 313.266C264.219 296.772 261.392 280.064 259.591 263.233C259.197 259.443 258.855 255.561 258.58 251.622C258.297 247.565 258.087 243.451 257.975 239.31C257.03 205.606 262.271 170.273 284.174 152.204C285.233 152.211 286.285 152.377 287.293 152.697C296.16 155.391 305.887 168.553 312.612 177.97C314.201 180.196 315.62 182.208 316.822 183.824L319.731 187.738C323.704 193.085 326.453 199.222 327.79 205.723C328.072 207.099 328.293 208.492 328.453 209.902L331.632 238.797V246.241L335.586 286.481Z" fill="#64D2ED"/>
<path d="M0.705322 338.278C6.41085 344.959 12.582 351.237 19.1737 357.067L503.594 357.716C510.185 351.886 516.357 345.608 522.062 338.927L0.705322 338.278Z" fill="#CCCCCC"/>
<path d="M264.93 521.468C264.122 521.474 263.314 521.481 262.5 521.481C262.119 521.481 261.738 521.481 261.357 521.474C255.847 521.455 250.378 521.277 244.951 520.942L245.082 522L244.616 520.923L234.206 496.974L241.582 493.845L255.111 488.101L259.216 502.049L263.144 515.406L264.313 519.365L264.93 521.468Z" fill="#FFB6B6"/>
<path d="M216.703 493.664L213.761 517.243C207.069 516.074 200.464 514.666 193.946 513.018V493.67L216.703 493.664Z" fill="#FFB6B6"/>
<path d="M112.94 450.205V478.093C108.947 475.556 105.028 472.916 101.184 470.175V450.205H112.94Z" fill="#CACACA"/>
<path d="M158.487 445.557V459.492C158.487 462.059 157.455 464.521 155.619 466.336C153.783 468.152 151.292 469.173 148.695 469.176H99.7787C90.4405 462.448 81.537 455.149 73.1205 447.323C69.1339 443.623 65.2633 439.807 61.5088 435.874H148.695C151.292 435.877 153.782 436.899 155.618 438.714C157.454 440.53 158.486 442.991 158.487 445.557Z" fill="#3F3D56"/>
<path d="M271.813 520.176L270.204 520.682L269.725 520.832L269.331 520.708C267.433 520.767 265.528 520.804 263.617 520.819C262.809 520.825 262.001 520.832 261.187 520.832C260.806 520.832 260.425 520.832 260.044 520.825C254.534 520.806 249.065 520.628 243.638 520.293L243.769 521.351L243.303 520.273C241.359 520.144 239.421 520.007 237.491 519.839L222.208 494.546L190.755 442.501L187.11 436.471C187.11 436.471 174.677 440.106 157.082 443.591C143.822 446.226 127.633 448.764 111.627 449.594C107.68 449.802 103.746 449.906 99.8711 449.874C89.8553 449.809 80.2336 448.881 71.8073 446.674C67.8207 442.974 63.9501 439.158 60.1956 435.225C53.7953 428.537 47.741 421.534 42.0556 414.242C41.9791 411.566 42.1174 408.888 42.4694 406.233C42.5285 405.792 42.5876 405.344 42.6598 404.889L44.4528 374.801L57.7721 373.061L78.04 370.413L99.9958 367.544L102.413 386.249C102.413 386.249 119.508 385.393 141.169 385.678C175.958 386.146 222.51 389.572 228.815 404.279C229.406 405.662 229.997 407.057 230.588 408.453C242.83 437.432 254.074 468.306 261.712 490.243C263.17 494.423 264.49 498.271 265.666 501.724C269.547 513.128 271.813 520.176 271.813 520.176Z" fill="#2F2E41"/>
<path d="M235.888 421.511C235.566 424.263 235.227 427.004 234.87 429.734C231.717 453.884 227.376 476.951 223.521 495.195C221.636 504.1 219.863 511.849 218.398 518.021C216.848 517.781 215.302 517.522 213.761 517.242C207.069 516.074 200.464 514.666 193.946 513.017C192.009 512.531 190.082 512.022 188.167 511.492L192.068 443.15L193.355 420.544L233.464 421.459L235.888 421.511Z" fill="#2F2E41"/>
<path d="M299.066 315.155C300.738 314.231 302.595 313.682 304.506 313.545C306.417 313.408 308.335 313.686 310.125 314.361C311.915 315.035 313.533 316.089 314.866 317.449C316.199 318.808 317.214 320.44 317.84 322.23L364.407 322.284L351.061 342.232L308.887 339.122C305.775 339.962 302.46 339.644 299.57 338.23C296.68 336.816 294.414 334.403 293.204 331.449C291.993 328.495 291.921 325.204 293.002 322.201C294.082 319.198 296.24 316.691 299.066 315.155L299.066 315.155Z" fill="#FFB6B6"/>
<path d="M324.454 342.131L408.322 350.365L408.543 350.085C408.966 349.551 450.947 296.445 458.001 283.804C462.341 276.209 463.921 267.375 462.48 258.77L462.432 258.56L462.265 258.42C458.844 255.588 454.549 253.991 450.088 253.895C445.626 253.798 441.265 255.207 437.722 257.888C420.688 270.926 406.953 287.697 397.601 306.879L392.295 317.796L330.749 320.406L324.454 342.131Z" fill="#64D2ED"/>
<path d="M293.421 492.43L281.06 520.871C279.287 520.994 277.512 521.094 275.734 521.169C274.328 521.241 272.929 521.293 271.517 521.331L271.038 521.481L270.644 521.357C268.746 521.416 266.841 521.453 264.93 521.468C264.122 521.474 263.314 521.481 262.5 521.481C262.119 521.481 261.738 521.481 261.357 521.474L262.178 518.696L263.144 515.406L266.979 502.373L272.516 483.558L280.752 487.05L293.421 492.43Z" fill="#FFB6B6"/>
<path d="M382.485 494.481C376.134 497.512 369.654 500.301 363.045 502.847L356.582 492.106L377.415 483.065L382.485 494.481Z" fill="#FFB6B6"/>
<path d="M426.443 445.661V468.286C422.601 471.09 418.682 473.795 414.687 476.399V445.661H426.443Z" fill="#CACACA"/>
<path d="M467.741 431.331C464.437 434.952 461.035 438.481 457.534 441.916C449.295 450.025 440.547 457.612 431.342 464.632H378.932C377.541 464.633 376.165 464.339 374.898 463.772C373.63 463.204 372.5 462.376 371.583 461.342L371.576 461.322C370.483 460.104 369.724 458.629 369.37 457.039L369.363 457.026C369.215 456.343 369.14 455.647 369.14 454.949V441.014C369.141 438.448 370.173 435.987 372.009 434.171C373.845 432.356 376.335 431.334 378.932 431.331H467.741Z" fill="#3F3D56"/>
<path d="M488.022 376.293L482.341 400.346C482.896 403.831 483.081 407.364 482.893 410.887C480.2 414.456 477.422 417.954 474.558 421.381C471.918 424.542 469.208 427.642 466.427 430.682C463.124 434.303 459.722 437.832 456.221 441.268C447.105 444.097 436.36 445.253 425.13 445.33C421.255 445.363 417.321 445.259 413.373 445.051C397.368 444.221 381.179 441.683 367.918 439.048C364.411 438.36 361.114 437.659 358.08 436.977C352.333 435.699 347.526 434.505 344.045 433.596C340.124 432.584 337.891 431.928 337.891 431.928L322.976 456.611L309.433 479.015L284.758 519.845C283.09 519.995 281.42 520.12 279.747 520.222C277.974 520.345 276.198 520.444 274.421 520.52C273.015 520.592 271.616 520.644 270.204 520.682L269.725 520.832L269.331 520.708L263 518.716L260.865 518.047L253.187 515.633C253.187 515.633 254.902 510.298 257.903 501.4C259.006 498.135 260.28 494.384 261.712 490.243C266.881 475.277 274.046 455.176 282.223 434.102C284.647 427.846 287.155 421.498 289.737 415.183C291.851 409.997 294.006 404.831 296.186 399.736C299.976 390.903 318.286 386.139 339.848 383.64C340.945 383.517 342.048 383.394 343.158 383.277C354.146 382.135 365.804 381.544 376.706 381.271C382.164 381.135 387.431 381.083 392.331 381.077C393.913 381.077 395.452 381.081 396.948 381.09H396.954C400.993 381.109 404.711 381.168 407.981 381.233C408.618 381.245 409.236 381.265 409.84 381.278H409.847C410.254 381.284 410.654 381.297 411.048 381.304C418.201 381.486 422.588 381.706 422.588 381.706L424.289 368.518L424.637 365.857L424.965 363.326V363.319L425.005 363.001L425.274 362.995L430.003 362.904L469.751 362.138L491.463 361.716L488.022 376.293Z" fill="#2F2E41"/>
<path d="M387.385 492.08C385.763 492.898 384.127 493.702 382.485 494.481C376.134 497.512 369.654 500.301 363.045 502.847C361.16 503.58 359.268 504.288 357.357 504.969C357.147 504.677 356.93 504.385 356.714 504.093C347.598 491.729 336.012 475.413 324.289 457.259C319.383 449.666 314.45 441.748 309.663 433.661L344.327 417.669L348.215 415.877L359.393 437.626L369.363 457.026L371.583 461.342L387.385 492.08Z" fill="#2F2E41"/>
<path d="M436.388 221.014C454.026 221.014 468.324 206.885 468.324 189.455C468.324 172.026 454.026 157.896 436.388 157.896C418.75 157.896 404.452 172.026 404.452 189.455C404.452 206.885 418.75 221.014 436.388 221.014Z" fill="#FFB6B6"/>
<path d="M435.331 219.644C442.798 223.185 451.988 221.986 459.117 217.82C466.246 213.655 471.492 206.862 475.158 199.524C477.843 194.149 479.793 187.994 478.238 182.201C476.683 176.408 470.481 171.553 464.67 173.269C468.651 170.101 468.187 163.568 464.97 159.643C461.753 155.717 456.677 153.83 451.772 152.407C444.654 150.343 437.175 148.885 429.834 149.941C422.493 150.997 415.265 154.925 411.811 161.413C409.413 162.023 406.878 161.831 404.603 160.865C402.328 159.899 400.441 158.215 399.238 156.077C398.438 158.133 398.346 160.392 398.976 162.505C399.606 164.618 400.923 166.467 402.723 167.765L392.781 162.435C390.247 165.907 392.55 171.202 396.397 173.168C400.245 175.135 404.896 174.61 409.095 173.56C413.295 172.509 408.34 181.273 412.671 181.357C417.003 181.441 421.688 183.681 422.928 187.783C423.577 189.932 423.199 192.239 423.39 194.473C423.582 196.707 424.665 199.186 426.856 199.768C428.241 200.135 429.755 199.648 431.128 200.056C432.83 200.563 433.867 202.361 434.017 204.111C434.167 205.861 433.611 207.587 433.063 209.257C430.896 215.859 437.851 212.159 435.684 218.76L435.331 219.644Z" fill="#2F2E41"/>
<path d="M497.992 312.864C497.729 286.799 496.534 269.035 494.445 260.059C488.836 235.928 462.927 231.528 458.868 230.983C458.436 229.845 457.771 228.808 456.916 227.935C456.06 227.063 455.032 226.373 453.896 225.91C452.759 225.447 451.538 225.22 450.309 225.243C449.08 225.266 447.869 225.538 446.75 226.044L428.341 234.377C424.607 236.073 421.264 238.51 418.522 241.535C415.78 244.561 413.697 248.111 412.401 251.966L409.669 260.209L408.297 315.525L412.828 338.793L412.835 338.806L415.889 354.48L413.787 357.595L401.788 375.378L401.584 375.69L401.578 375.696L401.052 376.469C401.782 376.865 402.504 377.254 403.213 377.643C405.052 378.643 406.845 379.623 408.592 380.584C409.013 380.817 409.426 381.044 409.84 381.278H409.847C410.109 381.421 410.372 381.564 410.628 381.706C417.183 385.328 423.148 388.683 428.525 391.773C429.274 392.201 430.016 392.629 430.745 393.051C455.571 407.401 468.155 416.189 474.558 421.381C477.422 417.955 480.2 414.456 482.893 410.887C485.336 407.661 487.702 404.379 489.992 401.041C490.393 398.432 490.662 395.823 490.925 393.266C491.24 390.189 491.568 387.002 492.12 383.868C492.363 382.479 491.431 381.161 490.531 379.889C489.697 378.701 488.909 377.585 489.073 376.534C489.243 375.45 490.452 374.269 491.628 373.12C492.908 371.861 494.235 370.563 494.425 369.193C494.951 365.377 495.417 361.548 495.824 357.705C496.494 351.455 497.009 345.186 497.368 338.897C497.873 330.213 498.081 321.535 497.992 312.864Z" fill="#64D2ED"/>
<path d="M376.425 404.87C376.966 403.054 377.904 401.377 379.172 399.958C380.44 398.539 382.007 397.412 383.764 396.656C385.52 395.9 387.423 395.534 389.338 395.584C391.253 395.633 393.134 396.097 394.848 396.943L428.156 364.783L432.745 388.263L400.412 415.202C398.783 417.954 396.19 420.019 393.124 421.007C390.058 421.996 386.731 421.838 383.774 420.564C380.818 419.291 378.437 416.99 377.082 414.097C375.728 411.204 375.494 407.921 376.425 404.87L376.425 404.87Z" fill="#FFB6B6"/>
<path d="M413.664 406.589L479.412 354.481L479.372 354.128C479.296 353.454 471.689 286.485 467.778 272.577C465.501 264.15 460.375 256.746 453.253 251.595L453.069 251.478L452.851 251.493C448.402 251.835 444.203 253.664 440.947 256.68C437.692 259.696 435.573 263.718 434.941 268.083C432.001 289.176 434.064 310.655 440.964 330.826L444.903 342.294L402.779 386.715L413.664 406.589Z" fill="#64D2ED"/>
<path d="M76.9721 220.448C92.7101 220.448 105.468 207.841 105.468 192.288C105.468 176.736 92.7101 164.128 76.9721 164.128C61.2341 164.128 48.476 176.736 48.476 192.288C48.476 207.841 61.2341 220.448 76.9721 220.448Z" fill="#A0616A"/>
<path d="M38.687 406.774L38.5316 406.559C30.2306 395.074 42.7153 367.477 44.5983 363.477C42.3623 362.76 40.447 361.299 39.1785 359.343C37.9101 357.387 37.3669 355.057 37.6415 352.75L38.4533 345.931L39.2994 339.243L33.2378 333.253L33.2208 333.104L29.7324 302.941L24.6605 282.907C22.7495 275.333 22.9123 267.393 25.1324 259.902C27.3525 252.412 31.5497 245.64 37.2934 240.281L49.0171 238.442L63.2651 224.875H86.2416L94.1198 232.314C109.609 244.86 113.285 239.41 130.751 263.028L118.246 295.586L125.235 343.607L125.24 352.297L128.88 356.295C130.192 357.736 131.145 359.459 131.663 361.327C132.182 363.196 132.251 365.158 131.867 367.058L131.388 369.423C133.239 370.207 134.872 371.417 136.151 372.954C137.43 374.49 138.318 376.307 138.74 378.252L140.018 384.148C141.112 385.575 148.333 395.089 148.333 397.69C148.333 398.081 148.041 398.458 147.415 398.877C142.494 402.17 115.296 408.883 103.259 404.123C90.4364 399.056 39.4655 406.657 38.9519 406.734L38.687 406.774Z" fill="#3F3D56"/>
<path d="M24.2102 292.543L47.9041 287.959C56.6666 300.891 61.3709 336.251 61.3709 336.251L87.5671 389.938C89.1772 390.905 90.4994 392.276 91.3989 393.912C92.2984 395.548 92.7431 397.39 92.6877 399.251C92.6323 401.112 92.0788 402.925 91.0836 404.506C90.0883 406.087 88.6869 407.379 87.022 408.25C85.3571 409.121 83.4883 409.541 81.6058 409.467C79.7233 409.392 77.8945 408.826 76.3055 407.826C74.7165 406.825 73.4242 405.427 72.5601 403.772C71.6961 402.118 71.2911 400.267 71.3866 398.407L37.22 334.798L24.2102 292.543Z" fill="#A0616A"/>
<path d="M24.0774 298.098L23.4038 263.297L34.554 248.556C36.7537 245.67 39.7264 243.449 43.1361 242.145C46.5458 240.841 50.2567 240.505 53.8494 241.176C58.7133 242.117 63.0339 244.849 65.9378 248.818C68.8416 252.787 70.112 257.698 69.4919 262.557C67.5994 277.293 63.3026 295.734 53.5817 299.907L53.4832 299.949L63.5581 334.769L26.1958 339.926L24.0774 298.098Z" fill="#3F3D56"/>
<path d="M164.799 295.023C164.799 295.023 136.364 273.059 120.942 269.904L107.293 289.584L144.208 311.94L216.079 332.476C217.337 333.857 218.943 334.885 220.734 335.454C222.524 336.024 224.435 336.115 226.273 335.719C228.111 335.323 229.809 334.453 231.197 333.199C232.585 331.944 233.611 330.348 234.173 328.575C234.735 326.801 234.813 324.912 234.397 323.099C233.981 321.286 233.087 319.614 231.807 318.253C230.526 316.892 228.903 315.89 227.104 315.349C225.304 314.808 223.392 314.747 221.561 315.173L164.799 295.023Z" fill="#A0616A"/>
<path d="M114.773 299.436L85.1396 280.621L78.9519 263.262C77.7498 259.85 77.5373 256.174 78.3385 252.648C79.1398 249.123 80.9228 245.89 83.4861 243.313C86.9846 239.844 91.6857 237.817 96.6389 237.642C101.592 237.466 106.428 239.157 110.168 242.37C121.504 252.125 136.112 255.395 134.21 265.698L139.667 266.485L167.576 287.431L151.118 320.977L114.773 299.436Z" fill="#3F3D56"/>
<path d="M44.6496 173.785C47.8494 168.893 53.854 165.633 59.6751 166.549C60.2169 162.878 61.7675 159.424 64.1581 156.563C66.5487 153.703 69.6877 151.545 73.2332 150.325C76.7787 149.106 80.5949 148.871 84.2663 149.646C87.9376 150.421 91.3234 152.177 94.0549 154.722C95.7688 153.374 98.2601 153.303 100.295 154.105C102.298 155.005 104.041 156.387 105.364 158.126C108.704 162.242 110.852 167.176 111.58 172.404C112.307 177.631 111.587 182.955 109.495 187.81C110.207 185.254 107.615 182.85 104.996 182.276C102.378 181.703 99.6307 182.245 96.9751 181.872C93.5715 181.393 90.512 179.442 87.103 179.003C84.238 178.634 81.3569 179.36 78.5631 180.087C75.7692 180.815 72.8955 181.557 70.0265 181.22C67.1573 180.883 63.4615 191.628 63.5111 199.197C63.5205 200.631 63.2216 202.472 61.8033 202.776C60.0566 203.151 59.0444 200.769 57.3819 200.12C55.9007 199.541 54.1251 200.613 53.6094 202.102C53.3999 202.864 53.3774 203.664 53.544 204.436C53.7105 205.208 54.0611 205.929 54.5668 206.54C55.5887 207.751 56.8018 208.791 58.1593 209.62L57.4746 210.182C56.3357 211.669 53.9732 211.734 52.3315 210.814C50.6901 209.894 49.6113 208.257 48.6389 206.659C45.6018 201.667 42.9377 196.348 41.8658 190.62C40.794 184.892 41.45 178.677 44.6496 173.785Z" fill="#2F2E41"/>
<path opacity="0.2" d="M294.902 221.109C297.793 233.01 299.126 245.227 298.87 257.463C298.624 269.701 296.813 281.858 293.48 293.646C291.6 300.304 289.227 306.815 286.382 313.129C285.87 314.264 287.568 315.256 288.084 314.112C293.22 302.735 296.852 290.751 298.89 278.457C300.935 266.16 301.394 253.656 300.255 241.245C299.61 234.287 298.456 227.384 296.802 220.591C296.505 219.374 294.605 219.889 294.902 221.109H294.902Z" fill="black"/>
<path opacity="0.2" d="M478.859 304.383L462.388 344.115C459.737 350.509 457.165 356.942 454.407 363.292C451.923 369.01 449.09 374.752 444.91 379.465C440.69 384.223 435.014 388.085 428.529 388.84C427.285 388.984 427.27 390.933 428.529 390.787C434.453 390.097 439.762 387.187 444.049 383.163C448.686 378.811 451.953 373.268 454.621 367.579C457.594 361.238 460.122 354.682 462.802 348.217L471.223 327.903L480.758 304.9C481.239 303.742 479.333 303.237 478.859 304.383Z" fill="black"/>
<path d="M283.622 340.446C283.911 341.279 284.46 341.999 285.19 342.504C285.919 343.009 286.792 343.273 287.683 343.257L305.082 342.815C305.979 342.797 306.846 342.494 307.554 341.949C308.262 341.404 308.773 340.647 309.01 339.792L311.472 313.774C312.346 314.165 313.297 314.359 314.255 314.34C315.088 314.319 315.909 314.136 316.671 313.802C317.432 313.468 318.12 312.989 318.694 312.392C319.268 311.796 319.718 311.093 320.017 310.325C320.317 309.556 320.46 308.737 320.439 307.914C320.418 307.091 320.234 306.279 319.896 305.527C319.557 304.774 319.073 304.095 318.469 303.527C317.865 302.96 317.154 302.515 316.376 302.22C315.599 301.924 314.77 301.782 313.937 301.803C313.554 301.801 313.171 301.841 312.797 301.92C312.389 301.484 311.894 301.137 311.342 300.902C310.791 300.667 310.196 300.549 309.595 300.555L282.832 301.238C282.61 301.246 282.389 301.273 282.172 301.319C281.585 301.427 281.028 301.658 280.539 301.997C280.05 302.335 279.64 302.773 279.337 303.282C279.034 303.79 278.844 304.356 278.781 304.943C278.718 305.53 278.783 306.123 278.971 306.683L283.622 340.446ZM311.977 312.008L313.729 305.808C313.928 305.092 313.933 304.336 313.742 303.618C313.827 303.617 313.902 303.578 313.987 303.577C315.189 303.553 316.351 304 317.219 304.821C318.087 305.642 318.59 306.77 318.618 307.957C318.647 309.144 318.197 310.293 317.369 311.153C316.541 312.014 315.401 312.514 314.2 312.545C313.423 312.569 312.655 312.383 311.977 312.008Z" fill="#2F2E41"/>
<path d="M282.172 301.319C282.742 304.541 289.152 306.805 296.861 306.412C303.949 306.089 309.745 303.629 310.807 300.714C310.414 300.599 310.005 300.546 309.595 300.555L282.832 301.238C282.61 301.246 282.389 301.273 282.172 301.319Z" fill="#3F3D56"/>
<path d="M225.67 305.385C225.858 304.825 225.923 304.232 225.86 303.645C225.797 303.058 225.607 302.492 225.304 301.983C225.001 301.475 224.591 301.037 224.102 300.699C223.613 300.36 223.056 300.129 222.469 300.021C222.252 299.975 222.031 299.948 221.809 299.94L195.045 299.257C194.445 299.251 193.85 299.369 193.298 299.604C192.747 299.839 192.252 300.186 191.844 300.622C191.469 300.543 191.087 300.503 190.704 300.505C189.022 300.463 187.391 301.083 186.172 302.229C184.952 303.375 184.244 304.953 184.201 306.616C184.159 308.278 184.787 309.889 185.947 311.094C187.106 312.299 188.703 313 190.385 313.042C191.344 313.061 192.295 312.867 193.169 312.476L195.631 338.494C195.868 339.349 196.378 340.106 197.086 340.651C197.794 341.196 198.662 341.499 199.559 341.517L216.958 341.959C217.849 341.975 218.721 341.711 219.451 341.206C220.181 340.701 220.729 339.981 221.019 339.148L225.67 305.385ZM190.441 311.247C189.24 311.216 188.1 310.716 187.272 309.855C186.443 308.995 185.994 307.846 186.022 306.659C186.05 305.471 186.554 304.344 187.422 303.523C188.29 302.702 189.452 302.255 190.653 302.279C190.738 302.28 190.813 302.319 190.898 302.32C190.708 303.038 190.712 303.794 190.912 304.51L192.664 310.71C191.986 311.085 191.218 311.271 190.441 311.247Z" fill="#2F2E41"/>
<path d="M222.469 300.021C221.899 303.242 215.488 305.507 207.78 305.114C200.692 304.791 194.896 302.331 193.834 299.416C194.227 299.301 194.636 299.247 195.045 299.257L221.809 299.94C222.031 299.948 222.252 299.975 222.469 300.021Z" fill="#3F3D56"/>
<path d="M197.105 243.503C198.446 242.535 199.985 241.87 201.615 241.553C203.244 241.237 204.924 241.277 206.535 241.671C208.147 242.066 209.652 242.805 210.944 243.836C212.235 244.867 213.282 246.166 214.011 247.64L254.083 242.85L244.722 261.399L208.105 263.105C205.517 264.15 202.631 264.222 199.993 263.305C197.356 262.389 195.151 260.548 193.795 258.132C192.439 255.716 192.027 252.892 192.637 250.196C193.247 247.5 194.837 245.119 197.105 243.503L197.105 243.503Z" fill="#9E616A"/>
<path d="M327.79 205.723C326.608 208.014 325.169 210.681 323.554 213.589C317.879 223.837 310.083 237.064 304.08 247.131C298.951 255.717 295.122 262.013 295.017 262.188L294.853 262.448L259.591 263.233L252.025 263.402L249.45 263.46L221.82 264.077L222.083 262.454L224.664 246.371L224.927 244.729L249.129 240.757L257.975 239.31L277.6 236.091L281.008 226.147C287.012 208.671 297.044 192.814 310.313 179.826C310.701 179.456 311.095 179.106 311.509 178.775C311.87 178.489 312.238 178.217 312.612 177.97C314.201 180.196 315.62 182.208 316.822 183.824L319.731 187.738C323.704 193.085 326.453 199.222 327.79 205.723Z" fill="#64D2ED"/>
<path d="M181.166 265.159C181.455 265.991 182.004 266.712 182.734 267.217C183.463 267.722 184.336 267.986 185.227 267.97L202.626 267.527C203.523 267.51 204.39 267.206 205.098 266.661C205.806 266.117 206.317 265.36 206.554 264.505L209.016 238.487C209.889 238.878 210.84 239.071 211.799 239.052C213.482 239.011 215.078 238.31 216.238 237.105C217.398 235.9 218.026 234.289 217.983 232.626C217.941 230.964 217.232 229.386 216.013 228.24C214.793 227.094 213.163 226.474 211.481 226.515C211.098 226.514 210.715 226.553 210.341 226.632C209.933 226.197 209.438 225.85 208.886 225.615C208.335 225.38 207.74 225.262 207.139 225.268L180.376 225.951C180.154 225.959 179.933 225.986 179.716 226.032C179.129 226.14 178.572 226.371 178.083 226.709C177.594 227.048 177.184 227.486 176.881 227.994C176.578 228.502 176.388 229.069 176.325 229.656C176.262 230.242 176.327 230.836 176.515 231.395L181.166 265.159ZM209.521 236.721L211.273 230.521C211.472 229.804 211.477 229.049 211.286 228.33C211.371 228.33 211.446 228.29 211.531 228.29C212.733 228.266 213.895 228.713 214.763 229.534C215.631 230.355 216.134 231.482 216.162 232.669C216.191 233.856 215.741 235.006 214.913 235.866C214.085 236.726 212.945 237.227 211.744 237.258C210.967 237.282 210.199 237.096 209.521 236.721Z" fill="#CCCCCC"/>
<path d="M179.716 226.032C180.286 229.254 186.696 231.519 194.405 231.125C201.493 230.802 207.289 228.343 208.351 225.427C207.958 225.313 207.549 225.259 207.139 225.268L180.376 225.951C180.154 225.959 179.933 225.986 179.716 226.032Z" fill="#3F3D56"/>
</svg>
